<?xml version="1.0" encoding="UTF-8"?>
<svg id="_图层_2" data-name="图层_2" xmlns="http://www.w3.org/2000/svg" viewBox="0 0 1075.08 289.07">
  <defs>
    <style>
      .cls-1 {
        fill: #4285f4;
      }

      .cls-2 {
        font-family: Avenir-Medium, Avenir;
        font-size: 40px;
        font-weight: 500;
      }

      .cls-3 {
        fill: #fff;
      }

      .cls-4 {
        fill: #2879ea;
      }
    </style>
  </defs>
  <g id="_图层_1-2" data-name="图层_1">
    <g>
      <path id="Shield" class="cls-1" d="M105.4,0L.02,52.75v77.93c-1.09,73.13,44.54,140.27,105.38,157.05,60.84-16.78,105.38-83.92,105.38-157.05V52.75L105.4,0h0Z"/>
      <path id="Path-3" class="cls-4" d="M210.78,143.86c-1.09,9.59-2.17,19.18-4.35,26.38-2.17,10.79-5.43,19.18-7.6,25.18-1.09,3.6-2.17,5.99-3.26,8.39-2.17,3.6-3.26,7.19-5.43,10.79-4.35,8.39-8.69,14.39-13.04,20.38-4.35,5.99-9.78,11.99-16.3,19.18-6.52,5.99-7.6,8.39-15.21,13.19s-11.95,8.39-26.07,14.39c-3.26,2.4-7.6,3.6-14.12,5.99l-34.76-52.75V71.93h85.83l54.32,71.93Z"/>
      <path id="certificate-manager" class="cls-3" d="M105.4,39.56c32.59,0,58.67,28.77,58.67,65.94,0,21.58-8.69,40.76-23.9,52.75v77.93l-34.76-37.17-34.76,37.17v-77.93c-14.12-11.99-23.9-31.17-23.9-52.75,0-37.17,26.07-65.94,58.67-65.94ZM105.4,137.87c16.3,0,29.33-14.39,29.33-32.37s-13.04-33.57-29.33-33.57-29.33,14.39-29.33,32.37,13.04,33.57,29.33,33.57Z"/>
    </g>
    <g>
      <path d="M364.62,50.84c-3.36-4.56-7.74-7.89-13.14-9.99-5.4-2.1-10.68-3.15-15.84-3.15-6.6,0-12.6,1.2-18,3.6-5.4,2.4-10.05,5.7-13.95,9.9-3.9,4.2-6.9,9.12-9,14.76-2.1,5.64-3.15,11.76-3.15,18.36,0,6.96,1.02,13.32,3.06,19.08,2.04,5.76,4.95,10.71,8.73,14.85s8.31,7.35,13.59,9.63c5.28,2.28,11.22,3.42,17.82,3.42s12.9-1.35,18.18-4.05c5.28-2.7,9.54-6.27,12.78-10.71l18.18,12.78c-5.64,7.08-12.54,12.57-20.7,16.47-8.16,3.9-17.7,5.85-28.62,5.85-9.96,0-19.11-1.65-27.45-4.95-8.34-3.3-15.51-7.92-21.51-13.86-6-5.94-10.68-13.02-14.04-21.24-3.36-8.22-5.04-17.31-5.04-27.27s1.77-19.41,5.31-27.63c3.54-8.22,8.4-15.21,14.58-20.97,6.18-5.76,13.47-10.2,21.87-13.32,8.4-3.12,17.52-4.68,27.36-4.68,4.08,0,8.34.39,12.78,1.17,4.44.78,8.7,1.98,12.78,3.6,4.08,1.62,7.92,3.63,11.52,6.03,3.6,2.4,6.66,5.28,9.18,8.64l-17.28,13.68Z"/>
      <path d="M477.48,106.28v2.88c0,.96-.06,1.92-.18,2.88h-65.7c.24,3.12,1.05,5.97,2.43,8.55,1.38,2.58,3.21,4.8,5.49,6.66,2.28,1.86,4.86,3.33,7.74,4.41,2.88,1.08,5.88,1.62,9,1.62,5.4,0,9.96-.99,13.68-2.97,3.72-1.98,6.78-4.71,9.18-8.19l14.4,11.52c-8.52,11.52-20.88,17.28-37.08,17.28-6.72,0-12.9-1.05-18.54-3.15-5.64-2.1-10.53-5.07-14.67-8.91-4.14-3.84-7.38-8.55-9.72-14.13s-3.51-11.91-3.51-18.99,1.17-13.29,3.51-18.99c2.34-5.7,5.55-10.56,9.63-14.58,4.08-4.02,8.91-7.14,14.49-9.36,5.58-2.22,11.61-3.33,18.09-3.33,6,0,11.55.99,16.65,2.97,5.1,1.98,9.51,4.92,13.23,8.82,3.72,3.9,6.63,8.76,8.73,14.58,2.1,5.82,3.15,12.63,3.15,20.43ZM455.88,96.56c0-2.76-.39-5.4-1.17-7.92-.78-2.52-2.01-4.74-3.69-6.66-1.68-1.92-3.81-3.45-6.39-4.59-2.58-1.14-5.61-1.71-9.09-1.71-6.48,0-11.97,1.95-16.47,5.85-4.5,3.9-6.99,8.91-7.47,15.03h44.28Z"/>
      <path d="M498.72,62h20.7v14.4h.36c2.4-5.04,5.76-9.12,10.08-12.24,4.32-3.12,9.36-4.68,15.12-4.68.84,0,1.74.03,2.7.09.96.06,1.8.21,2.52.45v19.8c-1.44-.36-2.67-.6-3.69-.72-1.02-.12-2.01-.18-2.97-.18-4.92,0-8.88.9-11.88,2.7-3,1.8-5.34,3.96-7.02,6.48-1.68,2.52-2.82,5.1-3.42,7.74-.6,2.64-.9,4.74-.9,6.3v46.26h-21.6V62Z"/>
      <path d="M550.02,79.28v-17.28h15.12v-25.02h21.24v25.02h21.6v17.28h-21.6v40.14c0,3.84.69,7.02,2.07,9.54,1.38,2.52,4.47,3.78,9.27,3.78,1.44,0,3-.15,4.68-.45,1.68-.3,3.18-.75,4.5-1.35l.72,16.92c-1.92.72-4.2,1.29-6.84,1.71-2.64.42-5.16.63-7.56.63-5.76,0-10.44-.81-14.04-2.43-3.6-1.62-6.45-3.84-8.55-6.66-2.1-2.82-3.54-6.06-4.32-9.72-.78-3.66-1.17-7.59-1.17-11.79v-40.32h-15.12Z"/>
      <path d="M651.36,20.96h25.38l35.1,98.1h.72l35.46-98.1h24.48l-51.12,127.44h-19.62l-50.4-127.44Z"/>
      <path d="M830.1,137.42h-.54c-2.16,3.84-5.64,6.99-10.44,9.45-4.8,2.46-10.26,3.69-16.38,3.69-3.48,0-7.11-.45-10.89-1.35-3.78-.9-7.26-2.4-10.44-4.5-3.18-2.1-5.82-4.86-7.92-8.28-2.1-3.42-3.15-7.65-3.15-12.69,0-6.48,1.83-11.64,5.49-15.48,3.66-3.84,8.37-6.78,14.13-8.82,5.76-2.04,12.15-3.39,19.17-4.05,7.02-.66,13.89-.99,20.61-.99v-2.16c0-5.4-1.95-9.39-5.85-11.97-3.9-2.58-8.55-3.87-13.95-3.87-4.56,0-8.94.96-13.14,2.88-4.2,1.92-7.68,4.26-10.44,7.02l-11.16-13.14c4.92-4.56,10.59-7.98,17.01-10.26,6.42-2.28,12.93-3.42,19.53-3.42,7.68,0,14.01,1.08,18.99,3.24,4.98,2.16,8.91,4.98,11.79,8.46,2.88,3.48,4.89,7.38,6.03,11.7,1.14,4.32,1.71,8.64,1.71,12.96v52.56h-20.16v-10.98ZM829.74,108.98h-4.86c-3.48,0-7.14.15-10.98.45-3.84.3-7.38.96-10.62,1.98-3.24,1.02-5.94,2.46-8.1,4.32-2.16,1.86-3.24,4.41-3.24,7.65,0,2.04.45,3.75,1.35,5.13.9,1.38,2.07,2.49,3.51,3.33,1.44.84,3.06,1.44,4.86,1.8,1.8.36,3.6.54,5.4.54,7.44,0,13.08-1.98,16.92-5.94,3.84-3.96,5.76-9.36,5.76-16.2v-3.06Z"/>
      <path d="M954.66,148.4h-20.52v-13.86h-.36c-1.92,4.32-5.25,8.13-9.99,11.43-4.74,3.3-10.35,4.95-16.83,4.95-5.64,0-10.47-.99-14.49-2.97-4.02-1.98-7.32-4.59-9.9-7.83-2.58-3.24-4.47-6.96-5.67-11.16-1.2-4.2-1.8-8.52-1.8-12.96v-54h21.6v47.88c0,2.52.18,5.16.54,7.92.36,2.76,1.14,5.25,2.34,7.47,1.2,2.22,2.85,4.05,4.95,5.49,2.1,1.44,4.89,2.16,8.37,2.16s6.33-.69,8.91-2.07c2.58-1.38,4.68-3.15,6.3-5.31,1.62-2.16,2.85-4.65,3.69-7.47.84-2.82,1.26-5.67,1.26-8.55v-47.52h21.6v86.4Z"/>
      <path d="M981.3,12.32h21.6v136.08h-21.6V12.32Z"/>
      <path d="M1017.12,79.28v-17.28h15.12v-25.02h21.24v25.02h21.6v17.28h-21.6v40.14c0,3.84.69,7.02,2.07,9.54,1.38,2.52,4.47,3.78,9.27,3.78,1.44,0,3-.15,4.68-.45,1.68-.3,3.18-.75,4.5-1.35l.72,16.92c-1.92.72-4.2,1.29-6.84,1.71-2.64.42-5.16.63-7.56.63-5.76,0-10.44-.81-14.04-2.43-3.6-1.62-6.45-3.84-8.55-6.66-2.1-2.82-3.54-6.06-4.32-9.72-.78-3.66-1.17-7.59-1.17-11.79v-40.32h-15.12Z"/>
    </g>
    <text class="cls-2" transform="translate(269.33 224.71)"><tspan x="0" y="0">Self-Signed SSL Certificate Issuance and </tspan><tspan x="0" y="48">Management Platform</tspan></text>
  </g>
</svg>